ffmpeg started on 2016-11-27 at 12:58:22
Report written to "Output/NVENCh264/results/ffmpeg/sintelllhq11000k.log"
Command line:
Tools/ffmpeg/ffmpeg -benchmark -y -i Input/y4m/sintel.y4m -c:v h264_nvenc -preset llhq -b:v 11000k -an Output/NVENCh264/encoded/sintelllhq11000k.mkv
ffmpeg version N-82227-gdb23fde Copyright (c) 2000-2016 the FFmpeg developers
  built with gcc 5.4.0 (Ubuntu 5.4.0-6ubuntu1~16.04.2) 20160609
  configuration: --prefix=/home/jaroslav/ffmpeg_build --pkg-config-flags=--static --extra-cflags=-I/home/jaroslav/ffmpeg_build/include --extra-ldflags=-L/home/jaroslav/ffmpeg_build/lib --bindir=/home/jaroslav/bin --enable-gpl --enable-libass --enable-libfdk-aac --enable-libfreetype --enable-libmp3lame --enable-libopus --enable-libtheora --enable-libvorbis --enable-libvpx --enable-libx264 --enable-libx265 --enable-nvenc --enable-libmfx --enable-libxvid --enable-libgsm --enable-libopencore-amrnb --enable-version3 --enable-nonfree
  libavutil      55. 35.100 / 55. 35.100
  libavcodec     57. 66.101 / 57. 66.101
  libavformat    57. 57.100 / 57. 57.100
  libavdevice    57.  2.100 / 57.  2.100
  libavfilter     6. 66.100 /  6. 66.100
  libswscale      4.  3.100 /  4.  3.100
  libswresample   2.  4.100 /  2.  4.100
  libpostproc    54.  2.100 / 54.  2.100
Input #0, yuv4mpegpipe, from 'Input/y4m/sintel.y4m':
  Duration: 00:00:20.83, start: 0.000000, bitrate: 2057307 kb/s
    Stream #0:0: Video: rawvideo (I420 / 0x30323449), yuv420p(progressive), 4096x1744, SAR 1:1 DAR 256:109, 24 fps, 24 tbr, 24 tbn, 24 tbc
[h264_nvenc @ 0x2a431c0] The variable bitrate rate-control requires the 'qmin' and/or 'qmax' option set.
Output #0, matroska, to 'Output/NVENCh264/encoded/sintelllhq11000k.mkv':
  Metadata:
    encoder         : Lavf57.57.100
    Stream #0:0: Video: h264 (h264_nvenc) (Main) (H264 / 0x34363248), yuv420p, 4096x1744 [SAR 1:1 DAR 256:109], q=-1--1, 11000 kb/s, 24 fps, 1k tbn, 24 tbc
    Metadata:
      encoder         : Lavc57.66.101 h264_nvenc
    Side data:
      cpb: bitrate max/min/avg: 0/0/11000000 buffer size: 22000000 vbv_delay: -1
Stream mapping:
  Stream #0:0 -> #0:0 (rawvideo (native) -> h264 (h264_nvenc))
Press [q] to stop, [?] for help
frame=   19 fps=0.0 q=0.0 size=       0kB time=00:00:00.00 bitrate=N/A speed=   0x    frame=   40 fps= 39 q=34.0 size=       1kB time=00:00:00.37 bitrate=  15.9kbits/s speed=0.366x    frame=   61 fps= 40 q=33.0 size=       1kB time=00:00:01.25 bitrate=   4.8kbits/s speed=0.813x    frame=   82 fps= 40 q=31.0 size=       1kB time=00:00:02.12 bitrate=   2.8kbits/s speed=1.04x    frame=  103 fps= 40 q=30.0 size=       1kB time=00:00:03.00 bitrate=   2.0kbits/s speed=1.17x    frame=  124 fps= 40 q=28.0 size=    5178kB time=00:00:03.87 bitrate=10944.3kbits/s speed=1.26x    frame=  145 fps= 40 q=27.0 size=    5178kB time=00:00:04.75 bitrate=8928.6kbits/s speed=1.32x    frame=  166 fps= 40 q=31.0 size=    6383kB time=00:00:05.62 bitrate=9293.8kbits/s speed=1.37x    frame=  167 fps= 22 q=30.0 size=    6383kB time=00:00:05.66 bitrate=9224.9kbits/s speed=0.749x    frame=  168 fps= 15 q=30.0 size=    6383kB time=00:00:05.70 bitrate=9158.7kbits/s speed=0.513x    frame=  169 fps= 12 q=30.0 size=    6383kB time=00:00:05.75 bitrate=9091.8kbits/s speed=0.422x    frame=  189 fps= 13 q=29.0 size=    6383kB time=00:00:06.58 bitrate=7941.5kbits/s speed=0.466x    frame=  210 fps= 14 q=28.0 size=    6383kB time=00:00:07.45 bitrate=7009.9kbits/s speed=0.51x    frame=  231 fps= 15 q=28.0 size=    6383kB time=00:00:08.33 bitrate=6273.9kbits/s speed=0.55x    frame=  251 fps= 16 q=31.0 size=   11541kB time=00:00:09.16 bitrate=10312.8kbits/s speed=0.586x    frame=  272 fps= 17 q=27.0 size=   11541kB time=00:00:10.04 bitrate=9414.3kbits/s speed=0.621x    frame=  293 fps= 18 q=25.0 size=   11541kB time=00:00:10.91 bitrate=8659.8kbits/s speed=0.655x    frame=  313 fps= 18 q=28.0 size=   14755kB time=00:00:11.75 bitrate=10286.4kbits/s speed=0.684x    frame=  334 fps= 19 q=25.0 size=   14755kB time=00:00:12.62 bitrate=9573.6kbits/s speed=0.714x    frame=  355 fps= 19 q=24.0 size=   14755kB time=00:00:13.50 bitrate=8953.1kbits/s speed=0.742x    frame=  376 fps= 20 q=23.0 size=   14755kB time=00:00:14.37 bitrate=8408.2kbits/s speed=0.768x    frame=  396 fps= 21 q=25.0 size=   19901kB time=00:00:15.20 bitrate=10719.2kbits/s speed=0.791x    frame=  417 fps= 21 q=23.0 size=   19901kB time=00:00:16.08 bitrate=10136.1kbits/s speed=0.815x    frame=  438 fps= 22 q=29.0 size=   19901kB time=00:00:16.95 bitrate=9613.1kbits/s speed=0.838x    frame=  459 fps= 22 q=29.0 size=   23505kB time=00:00:17.83 bitrate=10797.1kbits/s speed=0.859x    frame=  480 fps= 23 q=28.0 size=   23505kB time=00:00:18.70 bitrate=10292.1kbits/s speed=0.879x    frame=  500 fps= 23 q=28.0 size=   23505kB time=00:00:19.54 bitrate=9852.9kbits/s speed=0.897x    frame=  500 fps= 23 q=28.0 Lsize=   28125kB time=00:00:20.79 bitrate=11080.7kbits/s speed=0.953x    
video:28120kB audio:0kB subtitle:0kB other streams:0kB global headers:0kB muxing overhead: 0.017301%
bench: utime=1.040s
bench: maxrss=1198196kB
